<svg xmlns="http://www.w3.org/2000/svg" viewBox="0 0 128 128" role="img" aria-label="SafeDate icon">
  <defs>
    <linearGradient id="bg" x1="0%" y1="0%" x2="100%" y2="100%">
      <stop offset="0%" stop-color="#2b1a47" />
      <stop offset="50%" stop-color="#5b2c83" />
      <stop offset="100%" stop-color="#7c3aed" />
    </linearGradient>
    <linearGradient id="heart" x1="0%" y1="0%" x2="100%" y2="100%">
      <stop offset="0%" stop-color="#f9a8d4" />
      <stop offset="45%" stop-color="#f472b6" />
      <stop offset="100%" stop-color="#ec4899" />
    </linearGradient>
    <radialGradient id="glow" cx="50%" cy="20%" r="70%">
      <stop offset="0%" stop-color="#ffffff" stop-opacity="0.35" />
      <stop offset="100%" stop-color="#ffffff" stop-opacity="0" />
    </radialGradient>
    <filter id="softShadow" x="-30%" y="-30%" width="160%" height="160%">
      <feDropShadow dx="0" dy="4" stdDeviation="4" flood-color="#120a22" flood-opacity="0.35" />
    </filter>
  </defs>

  <rect x="8" y="8" width="112" height="112" rx="30" fill="url(#bg)" />
  <rect x="8" y="8" width="112" height="112" rx="30" fill="url(#glow)" />

  <g filter="url(#softShadow)">
    <path
      fill="url(#heart)"
      d="M64 94c-1.4 0-2.8-.5-4-1.4C34.9 73 20 59.9 20 42.7 20 31.2 29.2 22 40.5 22c6 0 11.2 2.5 14.9 6.9C59.1 24.5 64.4 22 70.4 22 81.8 22 91 31.2 91 42.7c0 17.2-14.9 30.3-40 49.9-1.2.9-2.6 1.4-4 1.4Z"
    />
  </g>

  <circle cx="86" cy="36" r="4.5" fill="#ffffff" fill-opacity="0.8" />
</svg>
